<svg width="82" height="81" viewBox="0 0 82 81" fill="none" xmlns="http://www.w3.org/2000/svg">
<rect x="0.666664" width="81" height="81" rx="40.3655" fill="white"/>
<g clip-path="url(#clip0_1_27)">
<path d="M38.6167 51.8875C38.6167 53.2625 39.7292 54.375 41.1042 54.375C42.4792 54.375 43.5917 53.2625 43.5917 51.8875H38.6167ZM49.7042 46.65V39.375C49.7042 35.3125 46.8917 31.9125 43.0917 31.0125V30.1125C43.0917 29.0125 42.2042 28.125 41.1042 28.125C40.0042 28.125 39.1167 29.0125 39.1167 30.1125V31.0125C35.3167 31.9125 32.5042 35.3125 32.5042 39.375V46.65L29.8542 49.3V50.625H52.3542V49.3L49.7042 46.65ZM46.1042 41.8875H42.3542V45.6375H39.8542V41.8875H36.1042V39.375H39.8542V35.625H42.3542V39.375H46.1042V41.8875Z" fill="#FF7A00"/>
</g>
<defs>
<clipPath id="clip0_1_27">
<rect width="40.2228" height="40.2228" fill="white" transform="translate(21.0553 20.3886)"/>
</clipPath>
</defs>
</svg>
