<svg width="82" height="81" viewBox="0 0 82 81" fill="none" xmlns="http://www.w3.org/2000/svg">
<rect x="0.666664" width="81" height="81" rx="40.3655" fill="white"/>
<path d="M51.3053 45.0136C49.7428 45.0136 48.2428 44.7636 46.8428 44.3011C46.4053 44.1636 45.9178 44.2636 45.5678 44.6011L42.8178 47.3511C39.2803 45.5511 36.3803 42.6636 34.5803 39.1136L37.3303 36.3511C37.6803 36.0261 37.7803 35.5386 37.6428 35.1011C37.1803 33.7011 36.9303 32.2011 36.9303 30.6386C36.9303 29.9511 36.3678 29.3886 35.6803 29.3886H31.3053C30.6178 29.3886 30.0553 29.9511 30.0553 30.6386C30.0553 42.3761 39.5678 51.8886 51.3053 51.8886C51.9928 51.8886 52.5553 51.3261 52.5553 50.6386V46.2636C52.5553 45.5761 51.9928 45.0136 51.3053 45.0136ZM52.5553 33.1386H48.8053V29.3886H46.3053V33.1386H42.5553V35.6386H46.3053V39.3886H48.8053V35.6386H52.5553V33.1386Z" fill="#FF7A00"/>
</svg>
